<svg viewBox="0 0 110 101.22" xmlns="http://www.w3.org/2000/svg" xmlns:xlink="http://www.w3.org/1999/xlink"><linearGradient id="a" gradientTransform="matrix(.89376315 -.44853921 .44853921 .89376315 1989.72 -523.11)" gradientUnits="userSpaceOnUse" x1="-2027.89" x2="-2020.5" y1="-324.42" y2="-324.42"><stop offset="0" stop-color="#ebebeb"/><stop offset=".06" stop-color="#eaeaea"/><stop offset="1" stop-color="#e8e8e8"/></linearGradient><linearGradient id="b" gradientTransform="matrix(.89376315 -.44853921 .44853921 .89376315 1989.72 -523.11)" gradientUnits="userSpaceOnUse" x1="-2023.45" x2="-2015.82" y1="-326.26" y2="-326.26"><stop offset="0" stop-color="#ccc"/><stop offset=".24" stop-color="#d0d0d0"/><stop offset="1" stop-color="#d2d2d2"/></linearGradient><linearGradient id="c" gradientTransform="matrix(.97553454 .2198462 -.2198462 .97553454 -1814.27 -1274.02)" gradientUnits="userSpaceOnUse" x1="2139.82" x2="2153.16" y1="919.8" y2="919.8"><stop offset="0" stop-color="#c4c4c4"/><stop offset=".33" stop-color="#cbcbcb"/><stop offset="1" stop-color="#cdcdcd"/></linearGradient><linearGradient id="d" gradientTransform="matrix(.97553454 .2198462 -.2198462 .97553454 -1814.27 -1274.02)" gradientUnits="userSpaceOnUse" x1="2147.79" x2="2155.02" y1="913.15" y2="913.15"><stop offset="0" stop-color="#e8e8e8"/><stop offset="1" stop-color="#eaeaea"/></linearGradient><linearGradient id="e" x1="2157.61" x2="2166.54" xlink:href="#d" y1="894.92" y2="894.92"/><linearGradient id="f" x1="2149.64" x2="2162.99" xlink:href="#c" y1="906.49" y2="906.49"/><linearGradient id="g" gradientUnits="userSpaceOnUse" x1="102.33" x2="106.87" y1="91.02" y2="91.02"><stop offset="0" stop-color="#cfcfcf"/><stop offset=".06" stop-color="#d0d0d0"/><stop offset="1" stop-color="#d2d2d2"/></linearGradient><linearGradient id="h" gradientUnits="userSpaceOnUse" x1="105.05" x2="109.74" y1="89.89" y2="89.89"><stop offset="0" stop-color="#c1c1c1"/><stop offset=".28" stop-color="#c6c6c6"/><stop offset="1" stop-color="#c8c8c8"/></linearGradient><linearGradient id="i" x1="4.53" x2="9.84" xlink:href="#g" y1="39.66" y2="39.66"/><linearGradient id="j" x1="7.72" x2="13.19" xlink:href="#h" y1="38.34" y2="38.34"/><linearGradient id="k" x1="18.65" x2="22.64" xlink:href="#h" y1="67.4" y2="67.4"/><linearGradient id="l" x1="27.28" x2="31.92" xlink:href="#h" y1="69.65" y2="69.65"/><linearGradient id="m" x1="8.18" x2="31.92" xlink:href="#h" y1="76.67" y2="76.67"/><linearGradient id="n" gradientTransform="matrix(.95881973 .28401534 -.28401534 .95881973 -1223.2 -288.92)" gradientUnits="userSpaceOnUse" x1="1271.4" x2="1293.53" y1="-64.12" y2="-64.12"><stop offset="0" stop-color="#c8c8c8"/><stop offset=".29" stop-color="#d8d8d8"/><stop offset=".68" stop-color="#e7e7e7"/><stop offset="1" stop-color="#ececec"/></linearGradient><linearGradient id="o" gradientTransform="matrix(.95881973 .28401534 -.28401534 .95881973 -1223.2 -288.92)" gradientUnits="userSpaceOnUse" x1="1293.13" x2="1270.99" y1="-46.73" y2="-74.07"><stop offset="0" stop-color="#c8c8c8"/><stop offset=".11" stop-color="#d3d3d3"/><stop offset=".32" stop-color="#e1e1e1"/><stop offset=".57" stop-color="#eaeaea"/><stop offset="1" stop-color="#ececec"/></linearGradient><linearGradient id="p" gradientTransform="matrix(.95881973 .28401534 -.28401534 .95881973 -1223.2 -288.92)" gradientUnits="userSpaceOnUse" x1="1263.85" x2="1302.13" y1="-65.21" y2="-65.21"><stop offset="0" stop-color="#e9e9e9"/><stop offset=".69" stop-color="#ececec"/><stop offset="1" stop-color="#f1f1f1"/></linearGradient><linearGradient id="q" gradientUnits="userSpaceOnUse" x1="57.5" x2="68.52" y1="63.06" y2="63.06"><stop offset="0" stop-color="#cecece"/><stop offset=".04" stop-color="#d1d1d1"/><stop offset=".26" stop-color="#dfdfdf"/><stop offset=".53" stop-color="#e8e8e8"/><stop offset="1" stop-color="#eaeaea"/></linearGradient><linearGradient id="r" gradientUnits="userSpaceOnUse" x1="45.88" x2="47.9" y1="40.44" y2="36.94"><stop offset="0" stop-color="#ebebeb"/><stop offset="1" stop-color="#ececec"/></linearGradient><linearGradient id="s" x1="36.23" x2="37.95" xlink:href="#r" y1="46.35" y2="43.38"/><linearGradient id="t" x1="38.72" x2="49.76" xlink:href="#q" y1="42.8" y2="55.97"/><linearGradient id="u" gradientTransform="matrix(-.19 .98 .98 .19 -1502.95 342.81)" x1="-595.19" x2="-588.65" xlink:href="#a" y1="1506.52" y2="1506.52"/><linearGradient id="v" gradientTransform="matrix(-.19 .98 .98 .19 -1502.95 342.81)" x1="-600.26" x2="-594.57" xlink:href="#a" y1="1510" y2="1510"/><linearGradient id="w" gradientTransform="matrix(-.19 .98 .98 .19 -1502.95 342.81)" gradientUnits="userSpaceOnUse" x1="-596.51" x2="-590.34" y1="1508.85" y2="1516.2"><stop offset="0" stop-color="#d2d2d2"/><stop offset=".2" stop-color="#ddd"/><stop offset=".5" stop-color="#e6e6e6"/><stop offset="1" stop-color="#e8e8e8"/></linearGradient><linearGradient id="x" gradientTransform="matrix(.13 .99 .99 -.13 -106.67 183.83)" gradientUnits="userSpaceOnUse" x1="-136.23" x2="-124.48" y1="214.82" y2="214.82"><stop offset="0" stop-color="#c7c7c7"/><stop offset=".24" stop-color="#cbcbcb"/><stop offset="1" stop-color="#cdcdcd"/></linearGradient><linearGradient id="y" x1="-146.98" x2="-132.94" xlink:href="#x" y1="221.38" y2="221.38"/><linearGradient id="z" x1="-154.42" x2="-142.67" xlink:href="#x" y1="211.46" y2="211.46"/><linearGradient id="A" gradientTransform="matrix(.13 .99 .99 -.13 -106.67 183.83)" x1="-150.62" x2="-123.83" xlink:href="#d" y1="206.59" y2="206.59"/><g opacity=".13"><path d="m39.65 95.71-3.82 2.29-5.16-3.7 3.81-2.29z" fill="url(#a)"/><path d="m34.48 92.01-3.81 2.29 2.67-5.09 3.82-2.29z" fill="#f1f1f1"/><path d="m37.16 86.92 5.16 3.7-2.67 5.09-5.17-3.7z" fill="url(#b)"/></g><g opacity=".13"><path d="m75.51 97.83-4.43-4.8 8.34-.78 4.43 4.81z" fill="url(#c)"/><path d="m83.85 97.06-4.43-4.81 4.16-10.05 4.43 4.81z" fill="url(#d)"/><path d="m99.91 62.16-4.16 10.05-3.82 9.22 4.43 4.8 3.82-9.21 4.16-10.05z" fill="url(#e)"/><path d="m88.01 87.01-4.43-4.81 8.35-.77 4.43 4.8z" fill="url(#f)"/><path d="m91.93 81.43-8.35.77-4.16 10.05-8.34.78 4.17-10.05 3.82-9.22 8.34-.77 4.17-10.05 8.33-.78-4.16 10.05z" fill="#f1f1f1"/></g><g opacity=".13"><path d="m106.87 92.64-2.73.21-1.81-3.45 2.72-.21z" fill="url(#g)"/><path d="m105.05 89.19-2.72.21 2.87-2.06 2.72-.21z" fill="#f1f1f1"/><path d="m107.92 87.13 1.82 3.45-2.87 2.06-1.82-3.45z" fill="url(#h)"/></g><g opacity=".13"><path d="m9.84 41.56-3.19.24-2.12-4.03 3.19-.25z" fill="url(#i)"/><path d="m7.72 37.52-3.19.25 3.36-2.41 3.18-.24z" fill="#f1f1f1"/><path d="m11.07 35.12 2.12 4.03-3.35 2.41-2.12-4.04z" fill="url(#j)"/></g><g opacity=".13"><path d="m20.33 67.87-1.68-5.25 2.31 4.31 1.68 5.25z" fill="url(#k)"/><path d="m8.18 78.29-1.68-5.24 6.32-2.68 1.68 5.25z" fill="#f1f1f1"/><path d="m28.96 69.5-1.68-5.25 2.96 5.56 1.68 5.24z" fill="url(#l)"/><path d="m22.64 72.18-1.68-5.25 6.32-2.68 1.68 5.25z" fill="#f1f1f1"/><path d="m12.2 71.31-1.68-5.25 8.13-3.44 1.68 5.25z" fill="#f1f1f1"/><path d="m20.33 67.87 2.31 4.31 6.32-2.68 2.96 5.55-6.32 2.68 2.31 4.31-8.13 3.44-2.31-4.31-6.32 2.67-2.97-5.55 6.32-2.67-2.3-4.31z" fill="url(#m)"/></g><g opacity=".13"><path d="m35 17.7-3 6.12a4.71 4.71 0 0 0 -.31-4.2c-2-4-7.73-7.37-12.84-7.62-3-.14-5.17.86-6 2.53l3-6.12c.81-1.67 2.94-2.68 6-2.53 5.15.25 10.88 3.66 12.86 7.62a4.69 4.69 0 0 1 .29 4.2z" fill="url(#n)"/><path d="m42.84 21.49-3 6.12c-1.47 3-5.33 4.86-10.85 4.59-9.29-.45-19.73-6.64-23.33-13.84-1.46-2.92-1.57-5.55-.57-7.62l3-6.12c-1 2.07-.89 4.7.57 7.62 3.59 7.19 14.04 13.39 23.34 13.84 5.5.27 9.37-1.56 10.84-4.59z" fill="url(#o)"/><path d="m18.94 0c9.28.45 19.73 6.64 23.33 13.84s-1.01 12.69-10.27 12.24-19.75-6.65-23.35-13.84 1.01-12.66 10.29-12.24zm10.11 20.2c5.11.24 7.65-2.77 5.66-6.73s-7.71-7.34-12.84-7.59-7.65 2.76-5.66 6.72 7.73 7.4 12.84 7.63z" fill="url(#p)"/></g><g opacity=".13"><path d="m65.76 57.31 1.7 1.53c1 .94 1.38 2.61.74 4.52-1 3-4 5.42-6.67 5.46a3.33 3.33 0 0 1 -2.33-.82l-1.7-1.53a3.28 3.28 0 0 0 2.33.8c2.69 0 5.68-2.47 6.67-5.45.64-1.91.3-3.58-.74-4.51z" fill="url(#q)"/><path d="m63.42 56.5c2.7 0 4.07 2.35 3.08 5.33s-4 5.42-6.67 5.45-4.07-2.35-3.08-5.28 3.98-5.46 6.67-5.5z" fill="#f1f1f1"/></g><g opacity=".13"><path d="m42.19 46.67-3.21-2.7 2.09-7.16 3 2.49z" fill="#f1f1f1"/><path d="m44.27 39.5-3.2-2.69 8.52 1.11 3.2 2.52z" fill="url(#r)"/><path d="m35.2 45.76-3.2-2.69 6.98.9 3.21 2.7z" fill="url(#s)"/><path d="m32.84 54.94-3.15-2.89 2.31-8.98 3.2 2.69z" fill="#f1f1f1"/><path d="m52.79 40.44-1.88 7.36-2.36 9.19-8.72-1.14-6.99-.91 2.36-9.18 6.99.91 1.88-7.37z" fill="url(#t)"/></g><g opacity=".13"><path d="m94.11 49.42-1.13-2.05-4.15.38 1.05 1.91z" fill="#f1f1f1"/><path d="m89.97 49.79-1.14-2.04-.3 4.78 1.03 2.03z" fill="url(#u)"/><path d="m94.36 45.49-1.13-2.04-.25 3.92 1.13 2.05z" fill="url(#v)"/><path d="m99.65 45.19-1.25-2.04-5.17.3 1.13 2.04z" fill="#f1f1f1"/><path d="m89.56 54.56 4.24-.25 5.28-.3.32-4.9.25-3.92-5.29.3-.25 3.93-4.23.24z" fill="url(#w)"/></g><g opacity=".2"><path d="m89.75 32.71 2-4.1-2.48-7.69-2 4.09z" fill="url(#x)"/><path d="m73.65 17.12 2-4.09-8.1 1.56-2 4.09z" fill="#f1f1f1"/><path d="m92.17 13.54 2-4.09-8.1 1.56-2 4.1z" fill="#f1f1f1"/><path d="m95.37 23.45 2-4.09-3.2-9.91-2 4.09z" fill="url(#y)"/><path d="m81.59 7.41 2-4.09-10.42 2.01-2 4.09z" fill="#f1f1f1"/><path d="m84.07 15.11 2-4.1-2.48-7.69-2 4.09z" fill="url(#z)"/><path d="m68.75 28.59 8.1-1.57 2.48 7.7 10.42-2.01-2.48-7.7 8.1-1.56-3.2-9.91-8.1 1.57-2.48-7.7-10.42 2.01 2.48 7.7-8.1 1.56z" fill="url(#A)"/></g><path d="m0 5h110v96.23h-110z" fill="none" opacity=".2"/></svg>