<?xml version="1.0" encoding="UTF-8"?>
<!-- Generator: Adobe Illustrator 23.0.3, SVG Export Plug-In . SVG Version: 6.00 Build 0)  -->
<svg version="1.1" xmlns="http://www.w3.org/2000/svg" xmlns:xlink="http://www.w3.org/1999/xlink" x="0px" y="0px" viewBox="0 0 466.1 128.5" style="enable-background:new 0 0 466.1 128.5;" xml:space="preserve">
<style type="text/css">
	.st0{fill-rule:evenodd;clip-rule:evenodd;}
	.st1{display:none;}
	.st2{display:inline;}
	.st3{fill:#BD1F39;}
</style>
<g id="Livello_1">
	<g>
		<path class="st0" d="M45.9,12.6c1.6-0.6,3.3-1.2,5-1.7c-2.5,1.2-3.2,1.5-5.9,3C45.2,13.5,45.6,13.1,45.9,12.6"/>
		<path class="st0" d="M56.6,9.6c0.9-0.2,1.8-0.3,2.7-0.4c0.3,0.4,0.5,0.9,0.8,1.5c-2.3,1.2-3.1,1.6-5.7,3.1    c-0.1-1.2-0.1-2.3-0.1-3.1C55.4,10.2,56.1,9.9,56.6,9.6"/>
		<path class="st0" d="M72,9c1,0.1,1.9,0.2,2.9,0.4c-0.2,0.2-0.5,0.4-1.1,0.7C73.3,9.6,72.7,9.3,72,9"/>
		<path class="st0" d="M90.4,13.9c1.9,0.9,3.8,1.9,5.7,3c0.2,0.2,0.5,0.4,0.7,0.6c-1,1.2-1,1.2-2.5,2.4c-1.6-1.8-3.2-3.5-4.9-5    C89.9,14.4,90.2,14.1,90.4,13.9"/>
		<path class="st0" d="M76.5,12.1c1.6-1,1.9-1.3,2.8-2c1.7,0.9,3.4,2.1,5,3.4c-1.7,1.2-1.8,1.3-3.9,2.7    C79.1,14.7,77.9,13.3,76.5,12.1"/>
		<path class="st0" d="M64.5,10.9c1.3-0.7,2.5-1.4,3.8-2c1.1,0.7,2.2,1.6,3.3,2.7c-1.6,1-3.3,2-4.9,2.9C65.9,13,65.2,11.8,64.5,10.9    "/>
		<path class="st0" d="M9.8,64.2c0-0.1,0-0.2,0-0.4c1.5-4.6,1.6-4.8,3.4-8.6c-0.1,2.9,0,5.8,0.4,8.8c-1.8,4.7-1.9,5-2.6,8.9    c-0.1-0.5-0.2-0.9-0.3-1.4C10.2,69.1,9.9,66.7,9.8,64.2"/>
		<path class="st0" d="M10.6,56c0.7-4.2,1.9-8.3,3.6-12.3c0.4-0.6,0.8-1.2,1.4-2.1c-0.8,2.6-1.4,5.2-1.8,8    C11.8,53.1,11.3,54,10.6,56"/>
		<path class="st0" d="M22.7,29.5c2.5-3,5.2-5.8,8.3-8.2c-1,1.3-2,2.7-2.9,4.3c-3.3,2.9-4,3.5-6.7,6.4    C21.8,31.1,22.2,30.3,22.7,29.5"/>
		<path class="st0" d="M35.7,17.9c2-1.3,4.1-2.5,6.4-3.6c-0.6,0.7-1.2,1.5-1.8,2.4c-3.5,2.2-4.2,2.7-7.4,5    C33.7,20.3,34.7,19,35.7,17.9"/>
		<path class="st0" d="M110.4,29.3c1.7,2.1,3.3,4.3,4.7,6.6c-0.3,0.5-0.6,0.8-1.4,1.6c-1.1-2.7-2.4-5.2-3.9-7.5    C110.1,29.7,110.3,29.5,110.4,29.3"/>
		<path class="st0" d="M117.8,40.7c1.2,2.5,2.3,5.2,3.1,7.9c-1.2,1.6-1.4,1.8-3.2,3.4c-0.1-0.8-0.3-1.7-0.4-2.5    c-0.4-2.2-0.9-4.4-1.6-6.5C117,41.8,117.5,41.3,117.8,40.7"/>
		<path class="st0" d="M40.1,113.9c-1.4-2.7-1.5-3.2-2.1-5.6c2.3,1.9,4.7,3.6,7.2,5.2c1.3,2.5,1.4,2.9,3,4.6    C45.3,116.9,42.7,115.5,40.1,113.9"/>
		<path class="st0" d="M49.1,104.4c1.2-3.4,1.3-3.6,3-6.5c1.4,2.4,2.9,4.7,4.4,6.8c-1.4,3.1-1.4,3.2-1.8,5.5    C52.7,108.4,50.9,106.5,49.1,104.4"/>
		<path class="st0" d="M37.6,104.2c0.3-3.5,0.3-3.7,1.2-6.7c1.7,2.4,3.6,4.6,5.5,6.7c-0.4,3.2-0.4,3.4-0.2,5.8    C41.9,108.3,39.7,106.3,37.6,104.2"/>
		<path class="st0" d="M55.3,93.3c2.8-3.4,3.2-3.9,6.1-7c0.8,2.8,1.7,5.4,2.5,8c-2.6,3.1-3.1,3.7-5,6.4    C57.7,98.3,56.5,95.9,55.3,93.3"/>
		<path class="st0" d="M28.3,104.7c-0.7-3.5-0.8-4-0.8-7.2c1.9,2.4,3.9,4.6,6,6.7c0.6,3.4,0.6,3.8,1.6,6.3    C32.7,108.8,30.4,106.8,28.3,104.7"/>
		<path class="st0" d="M40.7,92.7c2.2-4,2.3-4.3,4.8-7.7c1.2,2.7,2.5,5.4,3.8,8c-2.4,3.8-2.5,4-3.8,7C43.9,97.6,42.2,95.2,40.7,92.7    "/>
		<path class="st0" d="M28.2,92.6c1.1-4.1,1.2-4.4,2.8-7.9c1.4,2.7,2.8,5.4,4.4,7.9c-1.3,3.9-1.4,4.2-1.8,7.2    C31.6,97.5,29.8,95.1,28.2,92.6"/>
		<path class="st0" d="M49.9,79.7c3.5-3.8,4-4.4,7.6-7.8c0.7,3,1.5,5.9,2.3,8.7c-3.4,3.5-4.1,4.2-6.8,7.4    C51.9,85.4,50.9,82.6,49.9,79.7"/>
		<path class="st0" d="M18.9,93.3c0-4.2,0-5,0.7-8.6c1.3,2.8,2.8,5.4,4.5,7.9c-0.2,4-0.2,4.8,0.2,8C22.3,98.3,20.5,95.8,18.9,93.3"/>
		<path class="st0" d="M34,79.2c3-4.5,3.2-4.8,6.3-8.5c0.9,3,1.9,5.9,3,8.7c-3.3,4.3-3.5,4.6-5.5,8C36.4,84.8,35.1,82,34,79.2    L34,79.2z"/>
		<path class="st0" d="M21.2,79.1c1.9-4.6,2-4.9,4.2-8.7c0.9,3,1.9,5.9,3,8.7c-2.2,4.5-2.3,4.7-3.4,8.3    C23.6,84.7,22.3,81.9,21.2,79.1"/>
		<path class="st0" d="M45.5,65c4.1-4.1,4.6-4.6,8.6-8.2c0.6,3.1,1.3,6.1,2,9.1c-3.9,3.8-4.8,4.6-8.1,8.1C47.1,71,46.3,68,45.5,65"/>
		<path class="st0" d="M12.5,79c0.7-4.6,0.8-4.9,2.1-8.8c0.7,3,1.5,6,2.6,8.9c-1,4.5-1.1,4.8-1.2,8.4C14.6,84.7,13.4,81.9,12.5,79"/>
		<path class="st0" d="M29.3,64.5c3.3-4.2,3.9-5.1,7.4-8.9c0.1,0.6,0.2,1.1,0.3,1.7c0.5,2.5,1,5,1.6,7.4c-3.6,4.2-4.2,4.9-6.8,8.7    C30.8,70.5,30,67.5,29.3,64.5"/>
		<path class="st0" d="M106.9,50.2c3.2-2.4,3.5-2.6,5.9-4.6c0.2,0.9,0.4,1.9,0.6,2.9c0.4,2.1,0.7,4.2,0.9,6.3    c-3.1,2.3-3.3,2.4-6.5,4.7C107.7,56.4,107.4,53.3,106.9,50.2"/>
		<path class="st0" d="M60.1,51.5c4.5-3.8,5-4.2,9.1-7.3c0.3,1.7,0.7,3.4,1,5.1c0.2,1.3,0.5,2.6,0.7,3.9c-4.1,3.3-5.2,4.2-9,7.5    C61.2,57.7,60.6,54.6,60.1,51.5"/>
		<path class="st0" d="M17.1,64.2c2.6-4.7,2.7-5,5.5-8.9c0.2,2.4,0.5,4.9,1,7.4c0.1,0.5,0.2,1.1,0.3,1.6c-2.8,4.8-3,5.1-4.7,8.9    c-0.7-2.3-1.3-4.7-1.7-7.1C17.3,65.5,17.2,64.8,17.1,64.2"/>
		<path class="st0" d="M92,44c2.4-1.8,4.8-3.5,7.3-5.3c0.8,2.7,1.5,5.5,2,8.4c0,0.1,0.1,0.3,0.1,0.4c-3.6,2.7-3.3,2.4-7.5,5.4    c-0.3-2-0.9-3.8-1.2-5.8C92.4,46.1,92.2,45.1,92,44"/>
		<path class="st0" d="M95.3,56.4"/>
		<path class="st0" d="M42.5,49.9c4.4-4,5-4.5,9-7.9c0.4,2.7,0.9,5.6,1.4,8.6c-4.3,3.9-5.1,4.6-8.8,8.3c-0.3-1.2-0.5-2.5-0.7-3.7    C43,53.4,42.7,51.6,42.5,49.9"/>
		<path class="st0" d="M75,39.8c4.3-3.1,4.5-3.3,8.2-5.9c0.8,2.6,1.5,5.3,2.2,8.2c-3.7,2.7-4.9,3.6-8.6,6.4c0-0.1,0-0.1,0-0.2    C76.2,45.4,75.6,42.5,75,39.8"/>
		<path class="st0" d="M79.1,53.9c4.3-3.1,4.4-3.2,8.1-5.8c0.8,2.6,1.5,5.3,2.1,8.1c-3.6,2.7-4.9,3.6-8.5,6.3c0-0.1,0-0.1,0-0.2    C80.3,59.4,79.7,56.6,79.1,53.9"/>
		<path class="st0" d="M94.8,59.2c2.5-1.9,4.9-3.9,7.4-5.8c0.8,2.9,1.4,5.9,2,9.1c0,0.1,0.1,0.3,0.1,0.4c-3.7,2.9-3.4,2.6-7.6,5.9    c-0.3-2.2-0.9-4.1-1.2-6.3C95.2,61.4,95,60.3,94.8,59.2"/>
		<path class="st0" d="M27.2,49.6c3.8-4.1,4.3-4.7,8.1-8.2c0.1,2.6,0.3,5.4,0.6,8.3c-4.4,4.6-4.7,4.8-7.8,8.7    C27.6,55.3,27.3,52.4,27.2,49.6"/>
		<path class="st0" d="M103.3,35.8c2.4-1.9,3-2.3,4.7-3.7c1.3,2.5,2.4,5.1,3.3,7.9c-2.5,2-2.6,2.2-5.4,4.3    C105.1,41.2,104.2,38.4,103.3,35.8"/>
		<path class="st0" d="M57.5,37.3c4.5-3.4,4.9-3.6,8.7-6.4c0.6,2.4,1.1,5,1.7,7.7c-4.2,3.1-5.2,3.9-9,7C58.4,42.6,58,39.9,57.5,37.3    "/>
		<path class="st0" d="M16.5,49.6c3.2-4.4,3.3-4.6,6.3-8.1c-0.4,2.6-0.5,5.3-0.5,8.1c-3.4,4.6-3.6,4.8-5.9,8.6    C16.3,55.3,16.3,52.4,16.5,49.6"/>
		<path class="st0" d="M88,30.5c3.3-2.3,4-2.8,6.1-4.3c1.2,2.2,2.3,4.6,3.3,7.2c-2.3,1.6-4.6,3.3-6.9,4.9C89.8,35.6,89,33,88,30.5"/>
		<path class="st0" d="M41.2,36.3c4.5-3.6,4.9-3.9,8.9-6.8c0.2,2.3,0.4,4.7,0.7,7.2c-4.2,3.4-5.2,4.2-9,7.5    C41.5,41.4,41.3,38.8,41.2,36.3"/>
		<path class="st0" d="M71.6,27.2c3.7-2.5,3.7-2.5,7.2-4.8c1,2,1.9,4.2,2.7,6.6c-3.4,2.3-4.6,3.1-7.9,5.4    C73,31.8,72.3,29.4,71.6,27.2"/>
		<path class="st0" d="M27.8,36.4c3.8-3.5,4.4-4.1,8.2-7.1c-0.3,2.2-0.6,4.5-0.7,7c-4.5,4-4.9,4.3-8.2,7.8    C27.2,41.4,27.4,38.8,27.8,36.4"/>
		<path class="st0" d="M97.2,23.9c1.8-1.4,2.1-1.7,3.1-2.8c1.7,1.9,3.3,4,4.8,6.2c-1.7,1.5-1.9,1.7-4.1,3.4    C99.9,28.2,98.7,26,97.2,23.9"/>
		<path class="st0" d="M55.7,25.5c4.1-2.8,4.4-3,7.8-5.2c0.5,1.8,1.1,3.8,1.6,6c-3.8,2.6-4.8,3.3-8.4,5.9    C56.4,29.8,56,27.6,55.7,25.5"/>
		<path class="st0" d="M19.3,36.6c3.1-3.5,3.6-4,6.7-7c-0.9,2.1-1.7,4.4-2.2,6.8c-3.6,4-3.9,4.3-6.6,7.7    C17.8,41.6,18.5,39,19.3,36.6"/>
		<path class="st0" d="M82.8,19.8c2.4-1.6,3-2,4.6-3.2c1.5,1.6,2.9,3.4,4.2,5.4c-2.6,1.9-2.6,1.9-5.5,3.9    C85,23.7,83.9,21.6,82.8,19.8"/>
		<path class="st0" d="M41.7,25c4.1-2.9,4.6-3.2,8.1-5.5c0,1.7,0,3.6,0.1,5.6c-4,2.8-4.9,3.5-8.6,6.3C41.2,29.2,41.4,27,41.7,25"/>
		<path class="st0" d="M68.1,17.4c1.9-1.2,3.8-2.3,5.6-3.5c1.1,1.4,2.1,2.9,3.1,4.7c-4.2,2.7-4.9,3.2-6.6,4.3    C69.5,20.9,68.8,19.1,68.1,17.4"/>
		<path class="st0" d="M31,25.4c3.7-2.9,4.2-3.3,7.7-5.7c-0.7,1.6-1.3,3.4-1.8,5.4c-3.9,3-4.7,3.6-8.1,6.6    C29.4,29.5,30.1,27.4,31,25.4"/>
		<path class="st0" d="M54.7,16.5c3.5-2.1,3.7-2.2,6.4-3.7c0.5,1.2,1,2.6,1.5,4.1c-3.1,1.9-4.1,2.5-7.3,4.6    C55,19.6,54.8,18,54.7,16.5"/>
		<path class="st0" d="M43.7,16.5c3.5-2.1,3.9-2.3,6.8-3.9c-0.3,1-0.5,2.3-0.6,3.7c-3.4,2.1-4.3,2.6-7.6,4.9    C42.7,19.5,43.1,17.9,43.7,16.5"/>
		<g>
			<path d="M448.2,65.7H447v3.4h-0.7v-3.4H445v-0.6h3.2V65.7z M453.4,69.2h-0.7v-3.4h0l-1.4,3.4h-0.4l-1.3-3.4h0v3.4h-0.7v-4h1.1     l1.1,2.8l1.2-2.8h1V69.2z"/>
			<path d="M301.1,91.5v-2.4h2.6V69.9h-2.6v-2.4h18.6V74h-2.8v-4.1h-10v7.6h8.3v2.6h-8.3v8.9h10v-4.7h2.8v7.1H301.1z"/>
			<path d="M334.8,69.9h-2.6v-2.3h5.4v21.7h2.3v2.3h-5.2v-1.8c-0.7,0.8-1.5,1.3-2.3,1.7c-0.8,0.3-1.8,0.5-2.9,0.5     c-2.3,0-4.2-0.8-5.8-2.3s-2.3-3.4-2.3-5.7c0-2.3,0.7-4.2,2.2-5.7c1.5-1.5,3.4-2.3,5.6-2.3c1.1,0,2.1,0.2,3,0.5     c0.9,0.4,1.7,0.9,2.4,1.7V69.9z M324.6,83.9c0,1.6,0.5,3,1.5,4c1,1.1,2.2,1.6,3.7,1.6s2.7-0.5,3.7-1.6c1-1.1,1.5-2.4,1.5-4     s-0.5-3-1.5-4c-1-1.1-2.2-1.6-3.7-1.6c-1.5,0-2.8,0.5-3.8,1.6S324.6,82.2,324.6,83.9z"/>
			<path d="M343.7,78.5h-2.3v-2.3h5.2v9.2c0,1.6,0.2,2.7,0.6,3.2c0.4,0.5,1.1,0.7,2.1,0.7c0.8,0,1.6-0.2,2.4-0.6     c0.8-0.4,1.6-1.1,2.4-2v-8.2h-2.4v-2.3h5.2v12.9h2.3v2.3h-5.2v-2.2c-0.9,0.9-1.8,1.5-2.7,2c-0.9,0.4-1.9,0.6-2.9,0.6     c-1.7,0-2.9-0.4-3.6-1.3s-1.2-2.3-1.2-4.2V78.5z"/>
			<path d="M374,87.1l1.5,1.5c-0.8,1.1-1.8,1.9-3,2.5s-2.5,0.9-3.9,0.9c-2.3,0-4.1-0.7-5.5-2.2c-1.4-1.4-2-3.4-2-5.8     c0-2.4,0.7-4.4,2-5.9c1.3-1.5,3.1-2.2,5.2-2.2c1,0,1.9,0.2,2.6,0.5c0.8,0.3,1.4,0.8,2,1.4v-1.5h2.2v5.3h-2     c-0.4-1.1-1-1.9-1.8-2.5c-0.8-0.6-1.7-0.8-2.8-0.8c-1.4,0-2.5,0.5-3.3,1.6c-0.8,1-1.3,2.4-1.3,4.2c0,1.7,0.4,3.1,1.3,4.1     c0.9,1,2.2,1.5,3.8,1.5c0.9,0,1.8-0.2,2.6-0.6C372.5,88.5,373.3,87.9,374,87.1z"/>
			<path d="M393.5,89.2h2.3v2.3h-5.2v-2c-0.6,0.8-1.4,1.4-2.3,1.8c-0.9,0.4-1.9,0.6-3.1,0.6c-2.2,0-4.1-0.8-5.6-2.3     c-1.5-1.5-2.3-3.4-2.3-5.7s0.8-4.2,2.3-5.7c1.5-1.5,3.4-2.3,5.6-2.3c1.1,0,2.1,0.2,3,0.6c0.9,0.4,1.7,1,2.4,1.8v-2h5.2v2.3h-2.3     V89.2z M380.4,83.9c0,1.6,0.5,3,1.5,4c1,1.1,2.2,1.6,3.7,1.6c1.5,0,2.7-0.5,3.7-1.6c1-1.1,1.5-2.4,1.5-4s-0.5-3-1.5-4     c-1-1.1-2.2-1.6-3.7-1.6c-1.5,0-2.8,0.5-3.8,1.6S380.4,82.2,380.4,83.9z"/>
			<path d="M402.5,86.1v0.5c0,1.2,0.1,2,0.3,2.2c0.2,0.3,0.7,0.4,1.5,0.4c0.1,0,0.5,0,1.1-0.1l0.2,0v2.4c-0.3,0.1-0.7,0.1-1.1,0.1     s-0.8,0-1.3,0c-1.2,0-2.1-0.2-2.6-0.6c-0.5-0.4-0.7-1.2-0.7-2.3V78.5H397v-2.3h2.8v-5.7h2.7v5.7h3v2.3h-3V86.1z"/>
			<path d="M412.8,89.2h2.7v2.3h-8.1v-2.3h2.6V78.5h-2.6v-2.3h5.5V89.2z M408.7,72.5v-3.1h4.1v3.1H408.7z"/>
			<path d="M416.7,83.8c0-2.3,0.8-4.2,2.4-5.7c1.6-1.5,3.6-2.3,6-2.3c2.4,0,4.4,0.8,6,2.3s2.4,3.4,2.4,5.7c0,2.3-0.8,4.2-2.4,5.7     s-3.6,2.3-6,2.3c-2.4,0-4.4-0.8-6-2.3C417.5,88,416.7,86.1,416.7,83.8z M419.7,83.8c0,1.6,0.5,3,1.5,4s2.3,1.6,3.8,1.6     c1.6,0,2.8-0.5,3.9-1.6c1-1.1,1.5-2.4,1.5-4c0-1.6-0.5-3-1.5-4c-1-1.1-2.3-1.6-3.9-1.6c-1.5,0-2.8,0.5-3.8,1.6     S419.7,82.2,419.7,83.8z"/>
			<path d="M451,89.2h2.3v2.3h-7.5v-2.3h2.3v-6.9c0-1.6-0.2-2.7-0.6-3.2s-1.1-0.8-2.1-0.8c-0.8,0-1.6,0.2-2.4,0.6     c-0.8,0.4-1.6,1.1-2.4,2v8.2h2.4v2.3h-7.5v-2.3h2.4V78.5h-2.4v-2.3h5.2v2.2c0.9-0.9,1.8-1.5,2.7-1.9c0.9-0.4,1.9-0.6,2.9-0.6     c0.9,0,1.7,0.2,2.3,0.5c0.7,0.3,1.3,0.8,1.7,1.3c0.3,0.4,0.5,0.8,0.6,1.2c0.1,0.4,0.2,1.1,0.2,1.9v0.6V89.2z"/>
			<path d="M208.6,91.4h-2.7v-2.6c-1.2,1.1-2.4,1.8-3.6,2.3c-1.2,0.5-2.6,0.7-4.1,0.7c-3.6,0-6.5-1.2-8.8-3.5     c-2.3-2.4-3.5-5.3-3.5-8.9c0-3.6,1.2-6.6,3.5-8.9c2.3-2.4,5.3-3.5,8.9-3.5c1.4,0,2.7,0.2,3.9,0.7c1.2,0.5,2.3,1.2,3.3,2.2v-2.4     h2.6v8.3h-2.2c-0.6-1.9-1.5-3.4-2.8-4.4s-2.9-1.5-4.9-1.5c-2.6,0-4.8,0.9-6.5,2.7c-1.7,1.8-2.6,4.1-2.6,6.9     c0,2.8,0.9,5.1,2.6,6.9c1.7,1.8,3.9,2.7,6.5,2.7c2,0,3.6-0.5,4.9-1.5c1.3-1,2.3-2.4,2.8-4.3h-6v-2.6h11.3v2.6h-2.7V91.4z"/>
			<path d="M215.5,69.8h-2.6v-2.3h5.5v21.7h2.6v2.3h-8.1v-2.3h2.6V69.8z"/>
			<path d="M222.4,83.8c0-2.3,0.8-4.2,2.4-5.7c1.6-1.5,3.6-2.3,6-2.3c2.4,0,4.4,0.8,6,2.3c1.6,1.5,2.4,3.4,2.4,5.7     c0,2.3-0.8,4.2-2.4,5.7c-1.6,1.5-3.6,2.3-6,2.3c-2.4,0-4.4-0.8-6-2.3C223.2,88,222.4,86,222.4,83.8z M225.4,83.8     c0,1.6,0.5,3,1.5,4s2.3,1.6,3.8,1.6c1.6,0,2.8-0.5,3.9-1.6c1-1.1,1.5-2.4,1.5-4s-0.5-3-1.5-4c-1-1.1-2.3-1.6-3.9-1.6     c-1.5,0-2.8,0.5-3.8,1.6C225.9,80.8,225.4,82.2,225.4,83.8z"/>
			<path d="M241.1,69.8v-2.3h5.2V78c0.7-0.8,1.6-1.3,2.4-1.7c0.9-0.4,1.9-0.5,3-0.5c2.2,0,4.1,0.8,5.6,2.3c1.5,1.5,2.2,3.4,2.2,5.7     c0,2.3-0.8,4.2-2.3,5.7c-1.5,1.5-3.4,2.3-5.8,2.3c-1.1,0-2-0.2-2.9-0.5c-0.8-0.3-1.6-0.9-2.3-1.7v1.8h-5.2v-2.3h2.3V69.8H241.1z      M246.1,83.8c0,1.6,0.5,3,1.5,4c1,1.1,2.2,1.6,3.7,1.6c1.5,0,2.7-0.5,3.7-1.6s1.5-2.4,1.5-4c0-1.6-0.5-3-1.5-4     c-1-1-2.2-1.6-3.8-1.6c-1.5,0-2.7,0.5-3.7,1.6C246.6,80.8,246.1,82.2,246.1,83.8z"/>
			<path d="M277.5,89.1h2.3v2.3h-5.2v-2c-0.6,0.8-1.4,1.4-2.3,1.8c-0.9,0.4-1.9,0.6-3.1,0.6c-2.2,0-4.1-0.8-5.6-2.3     c-1.5-1.5-2.3-3.4-2.3-5.7s0.8-4.2,2.3-5.7c1.5-1.5,3.4-2.3,5.6-2.3c1.1,0,2.1,0.2,3,0.6c0.9,0.4,1.7,1,2.4,1.8v-2h5.2v2.3h-2.3     V89.1z M264.4,83.8c0,1.6,0.5,3,1.5,4s2.2,1.6,3.7,1.6s2.7-0.5,3.7-1.6c1-1.1,1.5-2.4,1.5-4s-0.5-3-1.5-4c-1-1.1-2.2-1.6-3.7-1.6     c-1.5,0-2.8,0.5-3.8,1.6C264.9,80.8,264.4,82.2,264.4,83.8z"/>
			<path d="M284.4,69.8h-2.6v-2.3h5.5v21.7h2.6v2.3h-8.1v-2.3h2.6V69.8z"/>
		</g>
		<g>
			<path d="M89.4,91.4h-2.7v-2.6c-1.2,1.1-2.4,1.8-3.6,2.3c-1.2,0.5-2.6,0.7-4.1,0.7c-3.6,0-6.5-1.2-8.8-3.5     c-2.3-2.4-3.5-5.3-3.5-8.9c0-3.6,1.2-6.6,3.5-8.9c2.3-2.4,5.3-3.5,8.9-3.5c1.4,0,2.7,0.2,3.9,0.7c1.2,0.5,2.3,1.2,3.3,2.2v-2.4     h2.6v8.3h-2.2c-0.6-1.9-1.5-3.4-2.8-4.4s-2.9-1.5-4.9-1.5c-2.6,0-4.8,0.9-6.5,2.7c-1.7,1.8-2.6,4.1-2.6,6.9     c0,2.8,0.9,5.1,2.6,6.9s3.9,2.7,6.5,2.7c2,0,3.6-0.5,4.9-1.5c1.3-1,2.3-2.4,2.8-4.3h-6v-2.6H92v2.6h-2.7V91.4z"/>
			<path d="M110,89.1h2.3v2.3h-5.2v-2c-0.6,0.8-1.4,1.4-2.3,1.8s-1.9,0.6-3.1,0.6c-2.2,0-4.1-0.8-5.6-2.3c-1.5-1.5-2.3-3.4-2.3-5.7     s0.8-4.2,2.3-5.7c1.5-1.5,3.4-2.3,5.6-2.3c1.1,0,2.1,0.2,3,0.6c0.9,0.4,1.7,1,2.4,1.8v-2h5.2v2.3H110V89.1z M96.9,83.8     c0,1.6,0.5,3,1.5,4s2.2,1.6,3.7,1.6c1.5,0,2.7-0.5,3.7-1.6c1-1.1,1.5-2.4,1.5-4s-0.5-3-1.5-4c-1-1.1-2.2-1.6-3.7-1.6     c-1.5,0-2.8,0.5-3.8,1.6C97.4,80.8,96.9,82.2,96.9,83.8z"/>
			<path d="M116.8,69.8h-2.6v-2.3h5.5v21.7h2.6v2.3h-8.1v-2.3h2.6V69.8z"/>
			<path d="M129,89.1h2.7v2.3h-8.1v-2.3h2.6V78.5h-2.6v-2.3h5.5V89.1z M124.9,72.4v-3.1h4.1v3.1H124.9z"/>
			<path d="M135.3,69.8h-2.6v-2.3h5.5v21.7h2.6v2.3h-8.1v-2.3h2.6V69.8z"/>
			<path d="M158.1,86.9c-0.7,1.5-1.7,2.7-3.1,3.6c-1.4,0.9-2.9,1.3-4.6,1.3c-2.4,0-4.4-0.7-5.8-2.2c-1.5-1.5-2.2-3.5-2.2-6     c0-2.4,0.7-4.3,2.2-5.7s3.4-2.2,5.9-2.2c2.4,0,4.4,0.8,5.9,2.3s2.2,3.6,2.2,6.2v0.4h-13.2c0.1,1.4,0.7,2.6,1.7,3.5     s2.3,1.3,3.8,1.3c1,0,1.9-0.2,2.7-0.7s1.5-1.1,2-1.9H158.1z M145.2,82.4h10.2c-0.2-1.4-0.8-2.5-1.6-3.2c-0.9-0.7-2-1.1-3.5-1.1     s-2.6,0.4-3.5,1.1C146,79.9,145.4,81,145.2,82.4z"/>
			<path d="M160.4,83.8c0-2.3,0.8-4.2,2.4-5.7c1.6-1.5,3.6-2.3,6-2.3c2.4,0,4.4,0.8,6,2.3c1.6,1.5,2.4,3.4,2.4,5.7     c0,2.3-0.8,4.2-2.4,5.7c-1.6,1.5-3.6,2.3-6,2.3c-2.4,0-4.4-0.8-6-2.3C161.2,88,160.4,86,160.4,83.8z M163.3,83.8     c0,1.6,0.5,3,1.5,4s2.3,1.6,3.8,1.6c1.6,0,2.8-0.5,3.9-1.6c1-1.1,1.5-2.4,1.5-4s-0.5-3-1.5-4c-1-1.1-2.3-1.6-3.9-1.6     c-1.5,0-2.8,0.5-3.8,1.6C163.9,80.8,163.3,82.2,163.3,83.8z"/>
		</g>
		<path class="st0" d="M35.6,18c2-1.3,4.1-2.5,6.4-3.6c-0.6,0.7-1.2,1.5-1.8,2.4c-3.5,2.2-4.2,2.7-7.4,5    C33.6,20.4,34.6,19.1,35.6,18"/>
		<path class="st0" d="M17,64.3c2.6-4.7,2.7-5,5.5-8.9c0.2,2.4,0.5,4.9,1,7.4c0.1,0.5,0.2,1.1,0.3,1.6c-2.8,4.8-3,5.1-4.7,8.9    c-0.7-2.3-1.3-4.7-1.7-7.1C17.2,65.6,17.1,64.9,17,64.3"/>
		<path class="st0" d="M95.2,56.5"/>
		<g>
			<path d="M48.2,108.3c0,0.5-0.1,1-0.1,1.6c0,1.2,0.3,2.4,0.6,3.6c1.7,1.1,3.5,2.2,5.3,3.1c0-1.5,0.1-2.6,0.2-3.3     C52.2,111.8,50.2,110.2,48.2,108.3z"/>
		</g>
		<g>
			<path d="M51.4,119c0.5,0.2,2.3,0.7,2.9,0.8c-0.1-0.7-0.2-1.3-0.2-1.8c-1.7-0.7-3.3-1.4-4.9-2.2C49.2,115.8,49.8,117.7,51.4,119z"/>
		</g>
	</g>
</g>
<g id="Livello_2" class="st1">
	<g class="st2">
		<path class="st3" d="M82.2,7.7h-5.8V2.1c-2.5,2.3-5.1,4-7.8,5S63,8.7,59.7,8.7c-7.7,0-14-2.5-19-7.6S33.2-10.3,33.2-18    c0-7.7,2.5-14.1,7.5-19.2s11.3-7.6,19-7.6c3,0,5.8,0.5,8.4,1.6s5,2.6,7.2,4.7v-5.2h5.7V-26h-4.6c-1.3-4.2-3.3-7.3-6.1-9.5    c-2.8-2.2-6.3-3.3-10.5-3.3c-5.6,0-10.2,1.9-14,5.8C42-29,40.2-24.1,40.2-18c0,6,1.9,10.9,5.6,14.9c3.7,3.9,8.4,5.9,14,5.9    c4.2,0,7.8-1.1,10.6-3.2c2.8-2.1,4.9-5.2,6.1-9.3H63.6v-5.6h24.4v5.6h-5.7V7.7z"/>
		<path class="st3" d="M8.6,42.7v5.8H3c2.3,2.5,4,5.1,5,7.8s1.6,5.6,1.6,8.9c0,7.7-2.5,14-7.6,19s-11.5,7.5-19.1,7.5    c-7.7,0-14.1-2.5-19.2-7.5s-7.6-11.3-7.6-19c0-3,0.5-5.8,1.6-8.4c1-2.6,2.6-5,4.7-7.2h-5.2V44h17.8v4.6c-4.2,1.3-7.3,3.3-9.5,6.1    c-2.2,2.8-3.3,6.3-3.3,10.5c0,5.6,1.9,10.2,5.8,14s8.9,5.6,14.9,5.6c6,0,10.9-1.9,14.9-5.6s5.9-8.4,5.9-14c0-4.2-1.1-7.8-3.2-10.6    c-2.1-2.8-5.2-4.9-9.3-6.1v12.9h-5.6V37h5.6v5.7H8.6z"/>
		<path class="st3" d="M472.7,42.7V37h5.6v24.4h-5.6V48.5c-4.1,1.3-7.2,3.3-9.3,6.1c-2.1,2.8-3.2,6.3-3.2,10.6c0,5.6,2,10.2,5.9,14    c3.9,3.7,8.9,5.6,14.9,5.6c6,0,11-1.9,14.9-5.6c3.9-3.7,5.8-8.4,5.8-14c0-4.2-1.1-7.7-3.3-10.5c-2.2-2.8-5.3-4.8-9.5-6.1V44h17.8    v5.7h-5.2c2.1,2.2,3.6,4.6,4.7,7.2s1.6,5.4,1.6,8.4c0,7.7-2.5,14-7.6,19c-5.1,5-11.4,7.5-19.2,7.5c-7.7,0-14.1-2.5-19.1-7.5    s-7.6-11.3-7.6-19c0-3.2,0.5-6.2,1.6-8.9c1.1-2.7,2.7-5.3,5-7.8h-5.6v-5.8H472.7z"/>
		<path class="st3" d="M82.2,138.8h5.7v5.6H63.6v-5.6h12.9c-1.3-4.1-3.3-7.2-6.1-9.3c-2.8-2.1-6.3-3.2-10.6-3.2    c-5.6,0-10.2,2-14,5.9c-3.7,3.9-5.6,8.9-5.6,14.9c0,6,1.9,11,5.6,14.9c3.7,3.9,8.4,5.8,14,5.8c4.2,0,7.7-1.1,10.5-3.3    c2.8-2.2,4.8-5.3,6.1-9.5h4.6v17.8h-5.7v-5.2c-2.2,2.1-4.6,3.6-7.2,4.7s-5.4,1.6-8.4,1.6c-7.7,0-14-2.5-19-7.6s-7.5-11.4-7.5-19.2    c0-7.7,2.5-14.1,7.5-19.1c5-5.1,11.3-7.6,19-7.6c3.2,0,6.2,0.5,8.9,1.6s5.3,2.7,7.8,5v-5.6h5.8V138.8z"/>
	</g>
</g>
</svg>