<svg viewBox="0 0 765.88 160.73" xmlns="http://www.w3.org/2000/svg"><g fill="#fff"><path d="m93.71 56.21c-.77-7.21-3.71-12.59-8.78-16.15s-12.71-5.34-22.88-5.34c-18.82 0-28.05 5.72-28.05 17.28 0 4.07 1.91 7.51 5.85 10.3s10.15 5.1 18.64 6.88c10.17 2.16 18.94 4.07 26.44 6a169.83 169.83 0 0 1 20.48 6.35 60.07 60.07 0 0 1 9.91 4.83 30.52 30.52 0 0 1 7.89 7.12 33.13 33.13 0 0 1 5.08 10.18 47.69 47.69 0 0 1 1.91 14.49 33.93 33.93 0 0 1 -4.83 18.06 44.29 44.29 0 0 1 -12.84 13.35 65.2 65.2 0 0 1 -19.08 8.26 91.4 91.4 0 0 1 -23.14 2.93c-23 0-40.43-3.95-52-12s-17.67-19.68-18.31-35.32h31.91q.19 10.86 9.92 17.16c6.49 4.2 14.5 6.23 24.16 6.23 10.55 0 18.44-1.65 23.9-5.08s8.14-8 8.14-13.86a19.23 19.23 0 0 0 -1-6.23 11.93 11.93 0 0 0 -3.68-5.22 27.3 27.3 0 0 0 -7.51-4.19 88.67 88.67 0 0 0 -12.46-3.31c-12.07-2.29-22.5-4.58-31.4-6.86s-16.15-5.22-21.87-8.78a33.44 33.44 0 0 1 -12.61-12.71c-2.67-5-4.07-11.32-4.07-18.95a37.77 37.77 0 0 1 3.57-16.4 37.6 37.6 0 0 1 10.93-13.35 55.93 55.93 0 0 1 18.31-8.88 90 90 0 0 1 25.68-3.33 94.86 94.86 0 0 1 25.81 3.33 60.32 60.32 0 0 1 19.71 9.41 42.15 42.15 0 0 1 12.71 14.59 43.14 43.14 0 0 1 5 19.07h-31.44zm113.41 98.92q-9 3.44-21.36 3.43c-8.64 0-15.89-1.14-22-3.43a41.06 41.06 0 0 1 -14.87-9.13 33.93 33.93 0 0 1 -8.52-13.35 48.94 48.94 0 0 1 -2.67-16.15v-93.6h30.52v28.35h39.41v19.58h-39.41v42.85c0 6.61 1.39 11.83 4.19 15.39s7.38 5.46 13.73 5.46m109.22 21.24v-14.63c-8 11.58-20.09 17.42-36.49 17.42a44.14 44.14 0 0 1 -16.15-2.79 34.18 34.18 0 0 1 -12.46-7.89 37.69 37.69 0 0 1 -8.26-12.08 39.19 39.19 0 0 1 -2.92-15.8v-68.88h31v64.72c0 13.1 6.61 19.58 19.83 19.58 8 0 14-2.29 18.06-6.74s6.1-10.17 6.1-17.16v-60.4h30.64v104.65zm123.08 0-.25-12.72c-7.12 10.3-18.06 15.51-32.68 15.51a53 53 0 0 1 -20.51-3.81 44.16 44.16 0 0 1 -16-11.06 51.8 51.8 0 0 1 -10.53-17.69 68.66 68.66 0 0 1 -3.82-23.65 70.46 70.46 0 0 1 3.18-21.86 50.85 50.85 0 0 1 9.41-17.17 42.76 42.76 0 0 1 15.13-11.19 49.25 49.25 0 0 1 20.34-3.94c14.5 0 26.07 5.47 34.84 16.4v-51.74h30.52v142.92zm-25.81-19.71a24.22 24.22 0 0 0 18.69-8.27c5-5.59 7.5-12.71 7.5-21.74 0-22.63-8.64-34.07-25.93-34.07-17.8 0-26.7 10.8-26.7 32.29 0 9.41 2.41 17 7.37 22.89a23.64 23.64 0 0 0 19.07 8.9zm68.79 19.71v-104.65h31v104.65z"/><path d="m461.34 8.65 32.55-8.65-8.65 32.55z"/><path d="m590.89 93.18a10.3 10.3 0 0 0 -3.09-2.12 9.14 9.14 0 0 0 -3.8-.79h-10.68v19.51h10.68a9.15 9.15 0 0 0 3.8-.8 10.12 10.12 0 0 0 3.09-2.12 9.66 9.66 0 0 0 2.82-6.88 9.39 9.39 0 0 0 -.75-3.71 9.64 9.64 0 0 0 -2.07-3.09z"/><path d="m765.88 63.77h-238.77v91.83h238.77zm-160 44.77a22 22 0 0 1 -4.72 7.06 22.84 22.84 0 0 1 -7 4.77 21.12 21.12 0 0 1 -8.61 1.76h-12.23v17.57h-13.24v-61.79h25.42a21.55 21.55 0 0 1 8.5 1.72 22.22 22.22 0 0 1 7 4.73 22.71 22.71 0 0 1 4.76 7 21.13 21.13 0 0 1 1.77 8.61 21.67 21.67 0 0 1 -1.68 8.57zm24 31.16h-13.22v-61.79h13.24zm53.23 0h-13.22v-4.59a22.24 22.24 0 0 1 -5.83 4.63 14.55 14.55 0 0 1 -7.06 1.72 17.54 17.54 0 0 1 -7.24-1.5 18.1 18.1 0 0 1 -5.82-4.1 20 20 0 0 1 -3.93-6.05 18.8 18.8 0 0 1 -1.46-7.41v-27.63h13.24v25.07a9.8 9.8 0 0 0 2.65 6.79 8.92 8.92 0 0 0 2.87 2.08 8.47 8.47 0 0 0 7 0 9.42 9.42 0 0 0 2.91-2.08 9.15 9.15 0 0 0 2-3.13 10.44 10.44 0 0 0 .71-3.84v-24.89h13.24zm47.75-5.87a15.86 15.86 0 0 1 -5.12 4.5 22.69 22.69 0 0 1 -6.84 2.43 39.39 39.39 0 0 1 -7.28.7 23.68 23.68 0 0 1 -12.23-3.13 27.14 27.14 0 0 1 -9-8.87l11.48-6.09a12.28 12.28 0 0 0 10.33 6.09 19.88 19.88 0 0 0 5.86-.62c1.21-.41 1.81-1 1.81-1.68s-.39-1.1-1.19-1.54a17 17 0 0 0 -2.73-1.19 24.91 24.91 0 0 0 -3-.84c-1-.21-1.71-.34-2.12-.4a60.18 60.18 0 0 1 -6.44-1.63 23.79 23.79 0 0 1 -5.92-2.74 15.47 15.47 0 0 1 -4.37-4.23 10.83 10.83 0 0 1 -1.72-6.23 13.21 13.21 0 0 1 1.64-6.66 15.19 15.19 0 0 1 4.28-4.81 18.76 18.76 0 0 1 6-2.91 24.93 24.93 0 0 1 6.92-1 24.16 24.16 0 0 1 11.88 3 27.4 27.4 0 0 1 9.13 8.2l-10.68 6.71a12.25 12.25 0 0 0 -4.63-4.5 11.31 11.31 0 0 0 -5.25-1.41 10.93 10.93 0 0 0 -4.6.79c-1.11.53-1.67 1.21-1.67 2 0 .36.26.7.79 1a14.27 14.27 0 0 0 2 1 22.23 22.23 0 0 0 2.65.88c1 .27 1.89.49 2.78.66 2.17.53 4.41 1.15 6.7 1.86a25.67 25.67 0 0 1 6.23 2.82 16.1 16.1 0 0 1 4.59 4.37 11.16 11.16 0 0 1 1.81 6.49 11.45 11.45 0 0 1 -2.07 6.98z"/></g></svg>